////////////////////////////////////////////////////////
// Arn - Tempelriddaren
// imdb : http://www.imdb.com/title/tt0837106/
////////////////////////////////////////////////////////

General
Complete name : Arn - Tempelriddaren 2007 DVDRip [H.264 - MP4 - AAC] ~ Mindbreaker
Format : H.264/AAC/MP4 - Anamophic
Source : DVD (MoA)
File size : 1.96 GiB
Duration : 2h 12mn
Overall bit rate : 2 114 Kbps


Video
ID : 1
Format : AVC
Format/Info : Advanced Video Codec
Format profile : High@L3.0
Duration : 2h 12mn
Bit rate : 1 950 Kbps
Width : 720 pixels
Height : 438 pixels
Display aspect ratio : 2.35:1
Frame rate : 25.000 fps
Bits/(Pixel*Frame) : 0.247
Stream size : 1.81 GiB (92%)
Writing library : x264 core 79

Audio
ID : 2
Format : AAC
Format/Info : Advanced Audio Codec
Format profile : LC
Duration : 2h 12mn
Bit rate : 160 Kbps
Channel(s) : 2 channels
Sampling rate : 48.0 KHz
Stream size : 152 MiB (8%)
Language : Swedish 

Subtitle
Format : SubRip
Language : English
Source : opensubtitles.org
 
http://genesis.1337x.org:1337/announce 
http://tracker.openbittorrent.com/announce 
http://trackedbyet.info:420/announce

////////////////////////////////////////////////////////
// Arn - Riket vid vägens slut
// imdb : http://www.imdb.com/title/tt0950739/
////////////////////////////////////////////////////////
General
Complete name : Arn - Riket vid vägens slut 2008 DVDRip [H.264 - MP4 - AAC] ~ Mindbreaker
Format : H.264/AAC/MP4 - Anamophic
Source : DVD (SVENNE)
File size : 1.81 GiB
Duration : 2h 2mn
Overall bit rate : 2 11 Kbps


Video
ID : 1
Format : AVC
Format/Info : Advanced Video Codec
Format profile : High@L3.0
Duration : 2h 3mn
Bit rate : 1 947 Kbps
Width : 720 pixels
Height : 436 pixels
Display aspect ratio : 2.35:1
Frame rate : 25.000 fps
Bits/(Pixel*Frame) : 0.248
Stream size : 1.67 GiB (92%)
Writing library : x264 core 65

Audio
ID : 2
Format : AAC
Format/Info : Advanced Audio Codec
Format profile : LC
Duration : 2h 2mn
Bit rate : 160 Kbps
Channel(s) : 2 channels
Sampling rate : 48.0 KHz
Stream size : 140 MiB (8%)
Language : Swedish 

Subtitle
Format : SubRip
Language : English
Source : opensubtitles.org
 
http://genesis.1337x.org:1337/announce 
http://tracker.openbittorrent.com/announce 
http://trackedbyet.info:420/announce

Screens : 